<svg xmlns="http://www.w3.org/2000/svg" width="42" height="42" viewBox="0 0 42 42">
  <g fill="none" fill-rule="evenodd" transform="translate(-4 -4)">
    <path fill="#FFFFFF" d="M28.5625293,24.8125248 C28.5625293,30.6786032 24.6250246,34.8571796 18.7053747,34.8571796 C13.0000107,34.8571796 8.41964813,30.2500313 8.41964813,24.5714531 C8.41964813,18.8928749 13.0000107,14.2857265 18.7053747,14.2857265 C21.3035921,14.2857265 23.6875235,15.1964419 25.5893115,16.9643012 L22.8035938,19.6696615 C21.7053782,18.5982317 20.2053765,18.0893025 18.7053747,18.0893025 C15.1428704,18.0893025 12.3035813,21.0357346 12.3035813,24.5714531 C12.3035813,28.1071716 15.1428704,31.0536037 18.7053747,31.0536037 C21.410735,31.0536037 24.0893097,29.4732447 24.5178816,26.6339556 L18.7053747,26.6339556 L18.7053747,23.0982371 L28.4018148,23.0982371 C28.5089578,23.6607377 28.5625293,24.2232384 28.5625293,24.8125248 L28.5625293,24.8125248 Z M37.8036117,26.0446691 L37.8036117,28.9911012 L34.8571796,28.9911012 L34.8571796,26.0446691 L31.9107476,26.0446691 L31.9107476,23.0982371 L34.8571796,23.0982371 L34.8571796,20.151805 L37.8036117,20.151805 L37.8036117,23.0982371 L40.7232581,23.0982371 L40.7232581,26.0446691 L37.8036117,26.0446691 Z M45.1429062,24.5714531 C45.1429062,13.2142967 35.9286095,4 24.5714531,4 C13.2142967,4 4,13.2142967 4,24.5714531 C4,35.9286095 13.2142967,45.1429062 24.5714531,45.1429062 C35.9286095,45.1429062 45.1429062,35.9286095 45.1429062,24.5714531 L45.1429062,24.5714531 Z"/>
    <rect width="48" height="48"/>
  </g>
</svg>
